# AST/ASF file generated using VICON BodyLanguage
# -----------------------------------------------
:version 1.10
:name VICON
:units
  mass 1.0
  length 0.45
  angle deg
:documentation
   .ast/.asf automatically generated from VICON data using
   VICON BodyBuilder and BodyLanguage model FoxedUp or BRILLIANT.MOD
:root
   order TX TY TZ RX RY RZ
   axis XYZ
   position 0 0 0  
   orientation 0 0 0 
:bonedata
  begin
     id 1 
     name lhipjoint
     direction 0.589753 -0.68606 0.426044 
     length 2.54082 
     axis 0 0 0  XYZ
  end
  begin
     id 2 
     name lfemur
     direction 0.34202 -0.939693 0  
     length 7.04539  
     axis 0 0 20  XYZ
    dof rx ry rz
    limits (-160.0 20.0)
           (-70.0 70.0)
           (-60.0 70.0)
  end
  begin
     id 3 
     name ltibia
     direction 0.34202 -0.939693 0   
     length 7.83772   
     axis 0 0 20   XYZ
    dof rx
    limits (-10.0 170.0)
  end
  begin
     id 4 
     name lfoot
     direction 0.0596604 -0.163915 0.984669   
     length 2.39542   
     axis -90 7.62852e-016 20   XYZ
    dof rx rz
    limits (-45.0 90.0)
           (-70.0 20.0)
  end
  begin
     id 5 
     name ltoes
     direction 1.53514e-011 -4.21954e-011 1   
     length 1.2047   
     axis -90 7.62852e-016 20   XYZ
    dof rx
    limits (-90.0 20.0)
  end
  begin
     id 6 
     name rhipjoint
     direction -0.580585 -0.69168 0.429534   
     length 2.52018  
     axis 0 0 0  XYZ 
  end
  begin
     id 7 
     name rfemur
     direction -0.34202 -0.939693 0   
     length 7.0101   
     axis 0 0 -20   XYZ
    dof rx ry rz
    limits (-160.0 20.0)
           (-70.0 70.0)
           (-70.0 60.0)
  end
  begin
     id 8 
     name rtibia
     direction -0.34202 -0.939693 0   
     length 7.70628   
     axis 0 0 -20   XYZ
    dof rx
    limits (-10.0 170.0)
 end
 begin
     id 9 
     name rfoot
     direction -0.0696237 -0.19129 0.979061   
     length 2.52466  
     axis -90 -7.62852e-016 -20   XYZ
    dof rx rz
    limits (-45.0 90.0)
           (-20.0 70.0)
  end
  begin
     id 10 
     name rtoes
     direction -1.53519e-011 -4.21793e-011 1   
     length 1.266   
     axis -90 -7.62852e-016 -20   XYZ
    dof rx
    limits (-90.0 20.0)
  end
  begin
     id 11 
     name lowerback
     direction 0.00381965 0.995707 -0.0924856   
     length 2.20825   
     axis 0 0 0   XYZ
    dof rx ry rz
    limits (-20.0 45.0)
           (-30.0 30.0)
           (-30.0 30.0)
  end
  begin
     id 12 
     name upperback
     direction -0.0139043 0.999634 -0.0231929   
     length 2.21517   
     axis 0 0 0   XYZ
    dof rx ry rz
    limits (-20.0 45.0)
           (-30.0 30.0)
           (-30.0 30.0)
  end
  begin
     id 13 
     name thorax
     direction -0.0143933 0.999691 0.0202892   
     length 2.22911   
     axis 0 0 0   XYZ
    dof rx ry rz
    limits (-20.0 45.0)
           (-30.0 30.0)
           (-30.0 30.0)
  end
  begin
     id 14 
     name lowerneck
     direction -0.0251153 0.981819 0.188153   
     length 1.61782   
     axis 0 0 0   XYZ
    dof rx ry rz
    limits (-20.0 45.0)
           (-30.0 30.0)
           (-30.0 30.0)
  end
  begin
     id 15 
     name upperneck
     direction 0.0563891 0.969357 -0.239095   
     length 1.64526   
     axis 0 0 0   XYZ
    dof rx ry rz
    limits (-20.0 45.0)
           (-30.0 30.0)
           (-30.0 30.0)
  end
  begin
     id 16
     name head
     direction 0.0208328 0.99459 -0.101773  
     length 1.67436  
     axis 0 0 0   XYZ
    dof rx ry rz
    limits (-20.0 45.0)
           (-30.0 30.0)
           (-30.0 30.0)
  end
  begin
     id 17 
     name lclavicle
     direction 0.917689 0.397224 0.00772059  
     length 3.31102  
     axis 0 0 0   XYZ
    dof ry rz
    limits (-20.0 10.0)
           (0.0 20.0)
  end
  begin
     id 18 
     name lhumerus
     direction 1 -4.4896e-011 2.32308e-027   
     length 5.25537   
     axis 180 -30 -90   XYZ
    dof rx ry rz
    limits (-60.0 90.0)
           (-90.0 90.0)
           (-90.0 90.0)
  end
  begin
     id 19
     name lradius
     direction 1 -4.49005e-011 -2.04271e-027   
     length 3.38855   
     axis 180 -30 -90   XYZ
    dof rx
    limits (-10.0 170.0)
  end
  begin
     id 20
     name lwrist
     direction 1 -4.48892e-011 2.56952e-028   
     length 1.69428   
     axis -5.12785e-016 90 90   XYZ
    dof ry
    limits (-180.0 0.0)
 end
  begin
     id 21 
     name lhand
     direction 1 -4.48966e-011 5.13905e-028   
     length 0.614516   
     axis -3.27915e-016 90 90   XYZ
    dof rx rz
    limits (-90.0 90.0)
           (-45.0 45.0)
  end
  begin
     id 22 
     name lfingers
     direction 1 -4.48979e-011 1.02781e-027   
     length 0.495439   
     axis -6.5583e-016 90 90   XYZ
    dof rx
    limits (0.0 90.0)
  end
  begin
     id 23
     name lthumb
     direction 0.707107 -6.35001e-011 0.707107   
     length 0.711354   
     axis -90 45 2.85299e-015   XYZ
    dof rx rz
    limits (-45.0 45.0)
           (-45.0 45.0)
  end
  begin
     id 24 
     name rclavicle
     direction -0.938556 0.342765 -0.0403177   
     length 3.27019  
     axis 0 0 0   XYZ 
    dof ry rz
    limits (-10.0 20.0)
           (-20.0 0.0)
  end
  begin
     id 25 
     name rhumerus
     direction -1 -4.48966e-011 2.52291e-027  
     length 5.38183   
     axis 180 30 90   XYZ
    dof rx ry rz
    limits (-90.0 60.0)
           (-90.0 90.0)
           (-90.0 90.0)
  end
  begin
     id 26 
     name rradius
     direction -1 -4.4896e-011 1.5797e-027   
     length 3.16988   
     axis 180 30 90   XYZ
    dof rx
    limits (-10.0 170.0)
  end
  begin
     id 27 
     name rwrist
     direction -1 -4.48947e-011 2.56952e-028   
     length 1.58494   
     axis -5.12785e-016 -90 -90   XYZ
    dof ry
    limits (-180.0 0.0)
  end
  begin
     id 28
     name rhand
     direction -1 -4.49098e-011 5.13905e-028   
     length 0.637679   
     axis -3.27915e-016 -90 -90   XYZ
    dof rx rz
    limits (-90.0 90.0)
           (-45.0 45.0)
  end
  begin
     id 29
     name rfingers
     direction -1 -4.49026e-011 1.02781e-027   
     length 0.514113   
     axis -6.5583e-016 -90 -90   XYZ
    dof rx
    limits (0.0 90.0)
  end
  begin
     id 30
     name rthumb
     direction -0.707107 -6.3491e-011 0.707107   
     length 0.738167   
     axis -90 -45 -2.85299e-015   XYZ
    dof rx rz
    limits (-45.0 45.0)
           (-45.0 45.0)
  end
:hierarchy
  begin
    root lhipjoint rhipjoint lowerback
    lhipjoint lfemur
    lfemur ltibia
    ltibia lfoot
    lfoot ltoes
    rhipjoint rfemur
    rfemur rtibia
    rtibia rfoot
    rfoot rtoes
    lowerback upperback
    upperback thorax
    thorax lowerneck lclavicle rclavicle
    lowerneck upperneck
    upperneck head
    lclavicle lhumerus
    lhumerus lradius
    lradius lwrist
    lwrist lhand lthumb
    lhand lfingers
    rclavicle rhumerus
    rhumerus rradius
    rradius rwrist
    rwrist rhand rthumb
    rhand rfingers
  end

#!OML:ASF H:\Swim\Project 1\Capture day 1\Session 1\swimmer.ASF
:FULLY-SPECIFIED
:DEGREES
2618
root 4.43468 11.6964 8.58406 96.5638 -0.406512 -2.23246
lowerback 0.529334 -1.42923 1.95663
upperback -2.08142 -1.9547 -2.88735
thorax -2.60489 -1.05751 -4.01826
lowerneck -13.3709 -5.11893 -15.2408
upperneck -0.169194 -5.42963 19.7891
head 3.22889 -2.08626 8.38968
rclavicle 1.43125e-014 -1.14301e-015
rhumerus 33.902 14.819 17.6181
rradius 38.5308
rwrist -38.9472
rhand -5.69535 -7.11186
rfingers 7.12502
rthumb 20.1252 -36.0895
lclavicle 1.43125e-014 -1.14301e-015
lhumerus 29.0819 -3.27402 -12.8422
lradius 42.9188
lwrist 10.4653
lhand -4.92354 16.749
lfingers 7.12502
lthumb 20.8669 45.6468
rfemur -39.6557 16.5147 17.0606
rtibia 39.6258
rfoot -13.3467 -19.4382
rtoes -8.6076
lfemur -40.2128 -13.0941 -16.6719
ltibia 40.7288
lfoot -0.663826 9.84169
ltoes 2.61702
2619
root 4.43246 11.6995 8.5674 96.427 -0.378552 -2.23856
lowerback 0.757391 -1.48481 2.02892
upperback -1.99046 -2.02454 -2.8971
thorax -2.64853 -1.09311 -4.06217
lowerneck -13.4542 -5.07926 -15.2481
upperneck -0.406461 -5.33961 19.9005
head 3.16341 -2.03845 8.43643
rclavicle 1.19271e-014 2.37051e-014
rhumerus 33.7184 15.7233 17.0605
rradius 39.666
rwrist -38.6195
rhand -5.67112 -6.46539
rfingers 7.12502
rthumb 20.1485 -35.4405
lclavicle 1.19271e-014 2.37051e-014
lhumerus 28.1479 -4.33247 -12.4106
lradius 44.3712
lwrist 11.1074
lhand -4.51049 16.3437
lfingers 7.12502
lthumb 21.2637 45.1973
rfemur -39.4383 16.585 17.3594
rtibia 39.7745
rfoot -13.525 -19.1396
rtoes -8.81072
lfemur -39.9721 -13.0393 -17.0734
ltibia 40.8238
lfoot -0.790468 9.53557
ltoes 2.51032
2620
root 4.43074 11.7046 8.54905 96.2406 -0.366543 -2.2555
lowerback 1.01969 -1.53842 2.09014
upperback -1.88872 -2.09115 -2.91148
thorax -2.70002 -1.12672 -4.10365
lowerneck -13.545 -5.04363 -15.3074
upperneck -0.61359 -5.25311 20.0935
head 3.11403 -1.98896 8.52036
rclavicle 6.36111e-015 1.37161e-014
rhumerus 33.5559 16.6394 16.5425
rradius 40.7531
rwrist -38.1397
rhand -5.54146 -5.78076
rfingers 7.12502
rthumb 20.2731 -34.7427
lclavicle 6.36111e-015 1.37161e-014
lhumerus 27.2223 -5.44076 -12.0609
lradius 45.8228
lwrist 11.9558
lhand -4.18089 15.9804
lfingers 7.12502
lthumb 21.5802 44.798
rfemur -39.1 16.6398 17.615
rtibia 39.9114
rfoot -13.5608 -18.8404
rtoes -8.99315
lfemur -39.6019 -12.8935 -17.4881
ltibia 40.8871
lfoot -0.782078 9.17845
ltoes 2.40517
2621
root 4.42951 11.7114 8.52915 96.0081 -0.376612 -2.28284
lowerback 1.31313 -1.58822 2.12302
upperback -1.774 -2.15236 -2.92688
thorax -2.75426 -1.15674 -4.12935
lowerneck -13.6574 -5.01559 -15.3907
upperneck -0.795607 -5.1751 20.3301
head 3.07979 -1.94086 8.62306
rclavicle 1.59028e-015 1.23743e-014
rhumerus 33.4099 17.5683 16.081
rradius 41.796
rwrist -37.5894
rhand -5.37323 -5.09467
rfingers 7.12502
rthumb 20.4348 -34.0394
lclavicle 1.59028e-015 1.23743e-014
lhumerus 26.3309 -6.60382 -11.7756
lradius 47.2317
lwrist 12.9105
lhand -3.96629 15.6613
lfingers 7.12502
lthumb 21.7863 44.4551
rfemur -38.6503 16.6777 17.8204
rtibia 40.0363
rfoot -13.4783 -18.5345
rtoes -9.13532
lfemur -39.1171 -12.7176 -17.8977
ltibia 40.9229
lfoot -0.655154 8.80211
ltoes 2.33242
2622
root 4.42871 11.7197 8.50801 95.7414 -0.400894 -2.31847
lowerback 1.62489 -1.63216 2.12783
upperback -1.65238 -2.20587 -2.94265
thorax -2.80997 -1.18211 -4.13913
lowerneck -13.7772 -4.98819 -15.431
upperneck -0.934198 -5.1069 20.5248
head 3.05789 -1.89769 8.7031
rclavicle 8.74653e-015 -1.15295e-014
rhumerus 33.2663 18.492 15.6471
rradius 42.8054
rwrist -37.0789
rhand -5.16078 -4.43966
rfingers 7.12502
rthumb 20.6389 -33.3624
lclavicle 8.74653e-015 -1.15295e-014
lhumerus 25.5016 -7.84105 -11.5593
lradius 48.5715
lwrist 13.8665
lhand -3.86828 15.3947
lfingers 7.12502
lthumb 21.8804 44.1776
rfemur -38.1083 16.6991 17.9817
rtibia 40.1475
rfoot -13.2921 -18.2172
rtoes -9.1724
lfemur -38.5428 -12.5487 -18.2771
ltibia 40.938
lfoot -0.437721 8.439
ltoes 2.31014
2623
root 4.42834 11.7292 8.48563 95.4468 -0.434056 -2.35972
lowerback 1.95222 -1.67442 2.10793
upperback -1.52321 -2.25726 -2.95097
thorax -2.86516 -1.20558 -4.12663
lowerneck -13.8839 -4.94874 -15.3346
upperneck -1.08371 -5.03604 20.5411
head 3.01769 -1.85961 8.69713
rclavicle 2.62396e-014 2.76311e-014
rhumerus 33.1308 19.4087 15.2473
rradius 43.8107
rwrist -36.6805
rhand -4.97942 -3.85258
rfingers 7.12502
rthumb 20.8132 -32.7563
lclavicle 2.62396e-014 2.76311e-014
lhumerus 24.7308 -9.13451 -11.3927
lradius 49.8262
lwrist 14.6986
lhand -3.80763 15.1677
lfingers 7.12502
lthumb 21.9387 43.9437
rfemur -37.494 16.7034 18.104
rtibia 40.2436
rfoot -13.0039 -17.904
rtoes -9.14864
lfemur -37.898 -12.4114 -18.6146
ltibia 40.9407
lfoot -0.144428 8.12303
ltoes 2.36565
2624
root 4.42837 11.7397 8.46268 95.1344 -0.464396 -2.40189
lowerback 2.2888 -1.71806 2.08027
upperback -1.39391 -2.3105 -2.9523
thorax -2.9249 -1.22976 -4.1018
lowerneck -13.942 -4.89684 -15.166
upperneck -1.26316 -4.9576 20.4569
head 2.95269 -1.82411 8.64426
rclavicle -2.38542e-015 7.7526e-015
rhumerus 33.0001 20.3374 14.8898
rradius 44.8491
rwrist -36.4448
rhand -4.87237 -3.35647
rfingers 7.12502
rthumb 20.916 -32.2488
lclavicle -2.38542e-015 7.7526e-015
lhumerus 24.0178 -10.4618 -11.258
lradius 50.9973
lwrist 15.2946
lhand -3.70034 14.9499
lfingers 7.12502
lthumb 22.0417 43.7138
rfemur -36.8225 16.6909 18.2013
rtibia 40.3249
rfoot -12.6307 -17.6001
rtoes -9.0914
lfemur -37.2045 -12.2948 -18.9021
ltibia 40.9363
lfoot 0.227236 7.87805
ltoes 2.54119
